<?xml version="1.0" encoding="utf-8"?>
<!-- Generator: Adobe Illustrator 23.0.2, SVG Export Plug-In . SVG Version: 6.00 Build 0)  -->
<svg version="1.1" id="Layer_1" xmlns="http://www.w3.org/2000/svg" xmlns:xlink="http://www.w3.org/1999/xlink" x="0px" y="0px"
	 viewBox="0 0 6428.1 2837.9" style="enable-background:new 0 0 6428.1 2837.9;" xml:space="preserve">
<style type="text/css">
	.st0{opacity:0.5;fill:#1987C5;enable-background:new    ;}
</style>
<g>
	<g>
		<path class="st0" d="M102.6,2285.5h93.9c32,0,56.6,11.4,74.3,34.4c15.6,20.7,23.5,47.2,23.5,79.5c0,25-4.6,47.5-13.9,67.7
			c-16.3,35.6-44.4,53.5-84.1,53.5h-93.7L102.6,2285.5L102.6,2285.5z M190.3,2493.3c10.4,0,19.1-1.1,26-3.4
			c12.1-4.1,22-12.1,29.7-24c6.2-9.5,10.6-21.7,13.3-36.5c1.6-8.8,2.3-17.1,2.3-24.6c0-29.1-5.6-51.7-16.9-67.9
			c-11.4-16.1-29.6-24.1-54.7-24.1h-55.3v180.5H190.3z"/>
		<path class="st0" d="M333.9,2285.5h29.2v32.6h-29.2V2285.5z M333.9,2350h29.2v170.6h-29.2V2350z"/>
		<path class="st0" d="M423.9,2466.8c0.9,9.6,3.3,16.9,7.3,22.1c7.4,9.3,20.2,14,38.5,14c10.8,0,20.5-2.4,28.8-6.9
			c8.2-4.7,12.4-11.8,12.4-21.6c0-7.4-3.4-13-9.9-16.8c-4.2-2.3-12.5-5-25.1-8.1l-23.2-5.7c-14.9-3.6-25.9-7.7-33-12.2
			c-12.6-7.9-18.8-18.6-18.8-32.3c0-16.2,5.9-29.3,17.7-39.4c11.8-10,27.8-15,47.7-15c26.2,0,45,7.6,56.6,22.8
			c7.1,9.6,10.7,19.9,10.5,31h-27.3c-0.5-6.4-2.8-12.3-7-17.7c-6.8-7.6-18.6-11.3-35.3-11.3c-11.1,0-19.5,2.1-25.2,6.2
			c-5.8,4.2-8.7,9.6-8.7,16.4c0,7.5,3.7,13.4,11.3,17.9c4.4,2.7,10.8,5,19.4,7.1l19.3,4.6c21.1,5,35.2,9.9,42.4,14.6
			c11.2,7.4,16.8,19,16.8,34.7c0,15.3-5.8,28.5-17.5,39.5c-11.7,11.1-29.5,16.7-53.6,16.7c-25.7,0-44.1-5.8-54.8-17.4
			c-10.7-11.6-16.5-25.9-17.3-42.9L423.9,2466.8L423.9,2466.8z"/>
		<path class="st0" d="M576.3,2301.4h29.3v47.8h27.3v23.5h-27.3v111.8c0,6,1.9,10,6.1,12c2.3,1.2,6,1.8,11.1,1.8
			c1.4,0,2.9-0.1,4.5-0.1c1.6,0,3.4-0.2,5.6-0.5v22.9c-3.3,0.9-6.7,1.7-10.4,2.1c-3.5,0.5-7.4,0.7-11.6,0.7
			c-13.4,0-22.5-3.5-27.3-10.4c-4.8-6.9-7.3-15.8-7.3-26.8v-113.4h-23.2v-23.5h23.2L576.3,2301.4L576.3,2301.4z"/>
		<path class="st0" d="M662.4,2349.2h27.5v29.6c2.2-5.8,7.7-12.8,16.5-21.1c8.7-8.2,18.8-12.4,30.3-12.4c0.5,0,1.3,0.1,2.7,0.1
			c1.3,0.1,3.4,0.3,6.5,0.6v30.4c-1.6-0.3-3.2-0.5-4.7-0.7c-1.4,0-3-0.1-4.7-0.1c-14.6,0-25.7,4.6-33.4,14
			c-7.8,9.4-11.7,20.1-11.7,32.2v98.6h-28.9L662.4,2349.2L662.4,2349.2z"/>
		<path class="st0" d="M770.8,2285.5h29.3v32.6h-29.3V2285.5z M770.8,2350h29.3v170.6h-29.3V2350z"/>
		<path class="st0" d="M841.3,2284.7h28v85.3c6.2-8.3,13.8-14.5,22.6-18.8c8.8-4.3,18.3-6.5,28.6-6.5c21.4,0,38.8,7.3,52.1,22
			c13.3,14.7,20,36.3,20,64.9c0,27.1-6.5,49.6-19.7,67.5c-13.1,18-31.5,26.9-54.7,26.9c-13.1,0-24.1-3.2-33.1-9.4
			c-5.5-3.8-11.1-9.7-17.3-17.9v21.9h-26.4L841.3,2284.7L841.3,2284.7z M951.3,2482c7.9-12.4,11.7-28.7,11.7-49
			c0-18-3.9-33-11.7-44.8c-7.7-11.8-19.1-17.7-34.3-17.7c-13.1,0-24.7,4.9-34.6,14.5c-9.9,9.7-14.8,25.8-14.8,48
			c0,16.1,2,29.2,6.1,39.2c7.6,18.9,21.8,28.3,42.5,28.3C931.9,2500.6,943.5,2494.4,951.3,2482z"/>
		<path class="st0" d="M1054.6,2349.2V2463c0,8.8,1.4,15.9,4.1,21.4c5,10.3,14.3,15.4,27.9,15.4c19.5,0,32.8-9,39.9-26.9
			c3.8-9.6,5.8-22.8,5.8-39.5v-84.2h28.8v171.4h-27.2l0.4-25.3c-3.6,6.6-8.2,12-13.6,16.5c-10.9,9-23.9,13.4-39.3,13.4
			c-24,0-40.3-8.2-49.1-24.5c-4.6-8.7-7-20.3-7-35v-116.5L1054.6,2349.2L1054.6,2349.2z"/>
		<path class="st0" d="M1213.9,2301.4h29.1v47.8h27.4v23.5H1243v111.8c0,6,2,10,6.2,12c2.2,1.2,6,1.8,11.2,1.8
			c1.4,0,2.9-0.1,4.5-0.1c1.5,0,3.4-0.2,5.5-0.5v22.9c-3.2,0.9-6.7,1.7-10.3,2.1c-3.6,0.5-7.4,0.7-11.6,0.7
			c-13.5,0-22.6-3.5-27.4-10.4c-4.7-6.9-7.2-15.8-7.2-26.8v-113.4h-23.2v-23.5h23.2L1213.9,2301.4L1213.9,2301.4z"/>
		<path class="st0" d="M1405,2353.9c11.4,5.7,20.1,13.1,26,22.2c5.7,8.6,9.6,18.8,11.5,30.3c1.6,7.9,2.5,20.5,2.5,37.8h-124.6
			c0.5,17.4,4.6,31.4,12.2,41.9c7.6,10.5,19.4,15.8,35.4,15.8c14.9,0,26.8-5,35.7-15c5-5.8,8.5-12.5,10.5-20.1h28.4
			c-0.8,6.2-3.3,13.3-7.5,21.1c-4.2,7.7-8.9,14-14.2,18.9c-8.6,8.5-19.4,14.3-32.2,17.2c-6.9,1.7-14.8,2.6-23.4,2.6
			c-21.2,0-39.2-7.8-53.9-23.3c-14.7-15.5-22.1-37.2-22.1-65.2c0-27.5,7.4-49.9,22.3-67c14.8-17.2,34.2-25.7,58.2-25.7
			C1382,2345.4,1393.7,2348.2,1405,2353.9z M1415.4,2421.2c-1.2-12.5-3.9-22.5-8.2-30c-7.8-13.9-20.8-20.8-39.2-20.8
			c-13.1,0-24,4.7-33,14.3c-8.8,9.6-13.5,21.6-14.1,36.4H1415.4z"/>
		<path class="st0" d="M1575.6,2354.5c5.1,3.1,10.9,8.7,17.4,16.8v-86.5h27.8v235.9h-25.9v-23.8c-6.8,10.5-14.7,18.1-23.8,22.8
			c-9.1,4.7-19.5,7.1-31.4,7.1c-18.9,0-35.5-8-49.4-24.1c-13.9-16-20.9-37.4-20.9-64c0-25,6.4-46.6,19.1-64.9
			c12.7-18.3,30.8-27.5,54.4-27.5C1555.9,2346.1,1566.8,2348.9,1575.6,2354.5z M1511.3,2482.9c7.7,12.4,20.1,18.6,37.3,18.6
			c13.3,0,24.1-5.7,32.8-17.2c8.5-11.5,12.8-27.9,12.8-49.3c0-21.7-4.4-37.7-13.2-48.1c-8.8-10.4-19.6-15.6-32.7-15.6
			c-14.4,0-26.1,5.6-35.1,16.6c-9,11.1-13.5,27.4-13.5,49C1499.7,2455.2,1503.6,2470.6,1511.3,2482.9z"/>
		<path class="st0" d="M1779.4,2444.8c0.8,13.3,3.8,24.1,9.1,32.4c10.2,15.6,28.1,23.4,53.8,23.4c11.5,0,22-1.7,31.4-5.1
			c18.3-6.6,27.5-18.4,27.5-35.5c0-12.8-3.9-22-11.7-27.4c-7.9-5.3-20.2-9.9-36.9-13.9l-30.8-7.2c-20.1-4.7-34.4-9.9-42.8-15.5
			c-14.5-9.8-21.7-24.5-21.7-44c0-21.1,7.1-38.5,21.3-52c14.2-13.5,34.4-20.3,60.4-20.3c24,0,44.4,5.9,61.1,17.8
			c16.7,11.9,25.2,30.9,25.2,57.1h-29.9c-1.5-12.6-4.8-22.2-9.8-29c-9.3-12.2-25-18.4-47.4-18.4c-17.9,0-30.9,4-38.8,11.8
			c-7.9,7.9-11.8,17-11.8,27.5c0,11.5,4.7,19.9,13.9,25.3c6.1,3.4,20,7.7,41.5,12.8l31.9,7.5c15.5,3.6,27.4,8.6,35.7,14.9
			c14.5,11,21.7,27,21.7,47.9c0,26-9.2,44.6-27.7,55.8c-18.4,11.2-39.9,16.8-64.4,16.8c-28.5,0-50.9-7.4-67-22.4
			c-16.1-14.8-24-35-23.7-60.3H1779.4z"/>
		<path class="st0" d="M2080.5,2349.2h31.8c-4,11-13,36-27,75.3c-10.5,29.4-19.3,53.4-26.3,72c-16.6,43.7-28.3,70.3-35.2,79.9
			c-6.8,9.6-18.4,14.4-35.1,14.4c-4.2,0-7.2-0.1-9.4-0.4c-2.2-0.4-4.8-0.9-8.1-1.8v-26.3c5.1,1.5,8.6,2.3,10.9,2.6
			c2.2,0.4,4.2,0.5,5.9,0.5c5.4,0,9.2-0.9,11.7-2.6c2.5-1.8,4.5-3.9,6.2-6.4c0.6-0.9,2.5-5.2,5.8-13.1c3.3-7.9,5.7-13.7,7.2-17.6
			l-63.4-176.4h32.7l45.9,139.6L2080.5,2349.2z"/>
		<path class="st0" d="M2154.4,2466.8c0.9,9.6,3.3,16.9,7.2,22.1c7.4,9.3,20.4,14,38.5,14c10.9,0,20.6-2.4,28.8-6.9
			c8.2-4.7,12.4-11.8,12.4-21.6c0-7.4-3.2-13-9.9-16.8c-4.2-2.3-12.5-5-25-8.1l-23.3-5.7c-14.8-3.6-25.7-7.7-32.8-12.2
			c-12.6-7.9-18.9-18.6-18.9-32.3c0-16.2,5.9-29.3,17.7-39.4c11.8-10,27.8-15,47.8-15c26.2,0,45,7.6,56.6,22.8
			c7.3,9.6,10.7,19.9,10.6,31h-27.2c-0.6-6.4-2.9-12.3-7.1-17.7c-6.7-7.6-18.4-11.3-35.2-11.3c-11.1,0-19.6,2.1-25.3,6.2
			c-5.7,4.2-8.6,9.6-8.6,16.4c0,7.5,3.7,13.4,11.3,17.9c4.3,2.7,10.8,5,19.3,7.1l19.4,4.6c21,5,35.1,9.9,42.3,14.6
			c11.2,7.4,16.8,19,16.8,34.7c0,15.3-5.9,28.5-17.6,39.5c-11.7,11.1-29.5,16.7-53.4,16.7c-25.9,0-44.2-5.8-54.9-17.4
			c-10.7-11.6-16.5-25.9-17.2-42.9L2154.4,2466.8L2154.4,2466.8z"/>
		<path class="st0" d="M2306.8,2301.4h29.2v47.8h27.3v23.5H2336v111.8c0,6,2,10,6.1,12c2.2,1.2,5.9,1.8,11.1,1.8
			c1.4,0,2.9-0.1,4.5-0.1c1.6,0,3.5-0.2,5.6-0.5v22.9c-3.3,0.9-6.7,1.7-10.3,2.1c-3.5,0.5-7.5,0.7-11.7,0.7
			c-13.4,0-22.5-3.5-27.4-10.4c-4.7-6.9-7.1-15.8-7.1-26.8v-113.4h-23.2v-23.5h23.2L2306.8,2301.4L2306.8,2301.4z"/>
		<path class="st0" d="M2498,2353.9c11.3,5.7,20,13.1,25.9,22.2c5.7,8.6,9.5,18.8,11.4,30.3c1.7,7.9,2.6,20.5,2.6,37.8h-124.8
			c0.5,17.4,4.7,31.4,12.3,41.9c7.6,10.5,19.4,15.8,35.4,15.8c14.9,0,26.8-5,35.7-15c4.9-5.8,8.5-12.5,10.6-20.1h28.3
			c-0.8,6.2-3.2,13.3-7.4,21.1c-4.3,7.7-8.9,14-14.1,18.9c-8.7,8.5-19.5,14.3-32.3,17.2c-6.9,1.7-14.6,2.6-23.3,2.6
			c-21.2,0-39.2-7.8-53.9-23.3c-14.7-15.5-22.1-37.2-22.1-65.2c0-27.5,7.3-49.9,22.3-67c14.8-17.2,34.2-25.7,58.1-25.7
			C2474.9,2345.4,2486.6,2348.2,2498,2353.9z M2508.3,2421.2c-1.2-12.5-3.8-22.5-8.1-30c-7.9-13.9-20.9-20.8-39.2-20.8
			c-13.1,0-24.2,4.7-33.1,14.3c-8.8,9.6-13.5,21.6-14.1,36.4H2508.3z"/>
		<path class="st0" d="M2574.4,2349.2h28.5v24.3c6.8-8.4,13-14.6,18.6-18.4c9.4-6.5,20.3-9.7,32.3-9.7c13.6,0,24.6,3.3,33,10
			c4.7,3.9,9,9.5,12.8,17c6.3-9.2,14-15.9,22.6-20.5c8.6-4.4,18.3-6.6,29.2-6.6c23,0,38.7,8.3,46.9,25c4.5,8.9,6.8,21,6.8,36.1
			v114.1h-29.9v-119.1c0-11.4-2.9-19.2-8.6-23.5c-5.7-4.3-12.7-6.4-20.8-6.4c-11.4,0-21.1,3.8-29.2,11.3c-8.2,7.6-12.3,20.2-12.3,38
			v99.7h-29.2v-111.9c0-11.6-1.5-20.1-4.2-25.5c-4.4-8-12.5-12-24.5-12c-10.9,0-20.7,4.2-29.6,12.7c-9,8.4-13.4,23.7-13.4,45.8v90.9
			h-28.8L2574.4,2349.2L2574.4,2349.2z"/>
		<path class="st0" d="M3062.5,2366.3c15.2,14.7,22.8,36.4,22.8,64.9c0,27.6-6.7,50.4-20,68.5c-13.4,18-34,27-62.2,27
			c-23.4,0-42-8-55.8-23.9c-13.8-15.9-20.7-37.3-20.7-64.2c0-28.8,7.3-51.7,21.8-68.7c14.5-17.1,34-25.6,58.5-25.6
			C3028.8,2344.2,3047.4,2351.6,3062.5,2366.3z M3044.7,2480.2c7-14.4,10.4-30.5,10.4-48.2c0-16-2.5-29-7.5-38.9
			c-8-15.9-21.9-23.7-41.4-23.7c-17.4,0-30.1,6.7-38,20.2c-7.9,13.5-11.8,29.6-11.8,48.6c0,18.2,4,33.5,11.8,45.5
			c7.9,12.2,20.4,18.2,37.7,18.2C3024.7,2501.8,3037.7,2494.6,3044.7,2480.2z"/>
		<path class="st0" d="M3134.1,2296.9c6.7-9.8,19.7-14.7,38.9-14.7c1.8,0,3.6,0.1,5.5,0.2c2,0.1,4.2,0.3,6.6,0.5v26.2
			c-3.1-0.2-5.2-0.4-6.6-0.4c-1.3,0-2.6-0.1-3.7-0.1c-8.9,0-14.2,2.3-15.9,6.8c-1.8,4.5-2.6,16.1-2.6,34.6h28.8v22.7h-28.8v147.9
			h-28.5v-147.9H3104V2350h23.9v-26.9C3128.3,2311.1,3130.4,2302.4,3134.1,2296.9z"/>
		<path class="st0" d="M3334.9,2445.2c0.8,13.4,3.7,24.2,9.1,32.5c10.2,15.6,28.1,23.3,53.8,23.3c11.5,0,22-1.7,31.5-5.1
			c18.3-6.6,27.4-18.5,27.4-35.5c0-12.8-3.9-22-11.5-27.4c-7.8-5.3-20.1-10-36.9-13.9l-30.8-7.2c-20.2-4.7-34.5-9.8-42.9-15.6
			c-14.5-9.8-21.7-24.5-21.7-44c0-21.1,7.1-38.4,21.4-51.9c14.1-13.6,34.3-20.4,60.4-20.4c23.9,0,44.4,6,61.1,17.9
			c16.7,11.9,25.1,30.9,25.1,57H3451c-1.6-12.6-4.8-22.2-9.8-29c-9.4-12.2-25.2-18.4-47.5-18.4c-18,0-30.9,4-38.8,11.9
			c-7.9,7.8-11.7,17-11.7,27.4c0,11.6,4.6,20,13.9,25.3c6.1,3.4,19.8,7.7,41.4,12.9l31.9,7.5c15.4,3.7,27.3,8.6,35.7,14.9
			c14.4,11,21.7,26.9,21.7,47.8c0,26-9.2,44.7-27.7,55.8c-18.5,11.2-40,16.9-64.4,16.9c-28.5,0-50.9-7.5-66.9-22.4
			c-16.2-14.8-24.1-34.9-23.7-60.3L3334.9,2445.2L3334.9,2445.2z"/>
		<path class="st0" d="M3642.1,2358.8c12.1,9.3,19.4,25.5,21.8,48.4h-28c-1.7-10.5-5.6-19.3-11.7-26.3c-6-7-15.8-10.5-29.3-10.5
			c-18.4,0-31.5,8.9-39.4,26.9c-5.1,11.6-7.6,25.9-7.6,42.9c0,17.2,3.7,31.6,10.9,43.3c7.2,11.8,18.6,17.6,34.3,17.6
			c11.9,0,21.4-3.6,28.4-10.9c6.9-7.3,11.8-17.2,14.4-29.8h28c-3.2,22.7-11.2,39.3-24,49.8c-12.8,10.5-29.2,15.8-49.1,15.8
			c-22.4,0-40.3-8.2-53.7-24.5c-13.3-16.4-19.9-36.8-19.9-61.4c0-30.1,7.3-53.5,21.9-70.2c14.7-16.8,33.2-25.1,55.8-25.1
			C3614.2,2344.7,3630,2349.4,3642.1,2358.8z"/>
		<path class="st0" d="M3692.7,2285.9h29.3v32.7h-29.3V2285.9z M3692.7,2350.5h29.3v170.6h-29.3V2350.5z"/>
		<path class="st0" d="M3871.4,2354.4c11.4,5.7,20,13.1,26,22.2c5.6,8.6,9.5,18.7,11.5,30.2c1.6,7.9,2.5,20.5,2.5,37.8h-124.6
			c0.6,17.4,4.6,31.4,12.2,41.9c7.6,10.5,19.4,15.8,35.3,15.8c15.1,0,26.8-5,35.8-14.9c5-5.8,8.5-12.5,10.5-20.1h28.3
			c-0.8,6.3-3.3,13.4-7.5,21.1c-4.1,7.7-8.8,14.1-14,18.9c-8.7,8.5-19.5,14.3-32.3,17.3c-6.9,1.6-14.7,2.6-23.4,2.6
			c-21.2,0-39.2-7.8-53.9-23.3c-14.7-15.5-22.1-37.3-22.1-65.2c0-27.6,7.4-49.9,22.2-67c14.8-17.2,34.2-25.7,58.2-25.7
			C3848.3,2345.9,3860.1,2348.7,3871.4,2354.4z M3881.7,2421.7c-1.2-12.5-3.9-22.4-8.2-29.9c-7.7-13.9-20.8-20.8-39.2-20.8
			c-13.1,0-24.1,4.8-33,14.3c-8.8,9.5-13.6,21.7-14.1,36.4H3881.7z"/>
		<path class="st0" d="M3947.8,2349.6h27.4v24.4c8.1-10,16.7-17.2,25.8-21.6c9.1-4.3,19.2-6.5,30.1-6.5c24.4,0,40.8,8.5,49.3,25.4
			c4.7,9.3,7,22.6,7,39.8v110h-29.3v-108c0-10.5-1.5-18.9-4.7-25.3c-5.2-10.6-14.3-16-27.8-16c-6.8,0-12.5,0.7-16.9,2
			c-7.9,2.4-14.8,7.1-20.8,14.2c-4.8,5.6-8,11.5-9.4,17.5c-1.4,6-2.2,14.6-2.2,25.8v89.8h-28.8L3947.8,2349.6L3947.8,2349.6z"/>
		<path class="st0" d="M4135.9,2301.9h29.1v47.8h27.4v23.5h-27.4V2485c0,6,2.1,10,6.1,12c2.2,1.2,6,1.8,11.2,1.8
			c1.4,0,2.9,0,4.5-0.1c1.6,0,3.5-0.2,5.6-0.5v22.9c-3.3,0.9-6.7,1.6-10.3,2.1c-3.6,0.4-7.5,0.6-11.7,0.6
			c-13.3,0-22.5-3.4-27.3-10.3c-4.8-6.9-7.1-15.8-7.1-26.8v-113.5h-23.3v-23.5h23.3V2301.9z"/>
		<path class="st0" d="M4221.1,2285.9h29.3v32.7h-29.3V2285.9z M4221.1,2350.5h29.3v170.6h-29.3V2350.5z"/>
		<path class="st0" d="M4307.3,2297.3c6.7-9.8,19.7-14.7,38.9-14.7c1.8,0,3.7,0.1,5.5,0.2c2,0.1,4.2,0.3,6.6,0.5v26.2
			c-2.9-0.2-5.2-0.4-6.6-0.4c-1.2-0.1-2.6-0.1-3.7-0.1c-8.9,0-14.2,2.3-16,6.8c-1.7,4.5-2.5,16.1-2.5,34.7h28.8v22.7h-28.8v147.9
			h-28.5v-147.9h-23.9v-22.7h23.9v-26.9C4301.5,2311.7,4303.6,2302.9,4307.3,2297.3z"/>
		<path class="st0" d="M4384.9,2285.9h29.3v32.7h-29.3V2285.9z M4384.9,2350.5h29.3v170.6h-29.3V2350.5z"/>
		<path class="st0" d="M4571,2358.8c12.1,9.3,19.3,25.5,21.8,48.4h-28c-1.7-10.5-5.6-19.3-11.7-26.3c-6-7-15.8-10.5-29.3-10.5
			c-18.4,0-31.4,8.9-39.3,26.9c-5.2,11.6-7.7,25.9-7.7,42.9c0,17.2,3.7,31.6,10.9,43.3c7.2,11.8,18.6,17.6,34.2,17.6
			c11.9,0,21.5-3.6,28.4-10.9c7.1-7.3,11.8-17.2,14.5-29.8h28c-3.2,22.7-11.2,39.3-24,49.8c-12.8,10.5-29.3,15.8-49.2,15.8
			c-22.3,0-40.2-8.2-53.5-24.5c-13.3-16.4-20-36.8-20-61.4c0-30.1,7.3-53.5,21.9-70.2c14.7-16.8,33.3-25.1,55.8-25.1
			C4543.1,2344.7,4558.9,2349.4,4571,2358.8z"/>
		<path class="st0" d="M4882.8,2303.1c16.3,15.7,25.2,33.5,27,53.5h-31.1c-3.4-15.2-10.3-27.2-20.6-36
			c-10.3-8.9-24.8-13.3-43.5-13.3c-22.7,0-41.1,8.2-55,24.5c-14.1,16.3-21,41.2-21,74.8c0,27.6,6.4,49.9,18.9,67
			c12.7,17.1,31.5,25.7,56.6,25.7c23.1,0,40.6-9,52.6-27c6.4-9.5,11.2-21.9,14.4-37.4h31c-2.6,24.7-11.8,45.5-27.1,62.2
			c-18.5,20.2-43.3,30.2-74.7,30.2c-27.1,0-49.7-8.2-68.1-24.8c-24.1-21.8-36.2-55.7-36.2-101.3c0-34.6,9.1-63.1,27.3-85.4
			c19.5-24.1,46.6-36.2,81-36.2C4843.7,2279.6,4866.6,2287.4,4882.8,2303.1z"/>
		<path class="st0" d="M5073.6,2366.7c15,14.7,22.6,36.4,22.6,64.9c0,27.7-6.7,50.4-20,68.4c-13.4,18-34.1,27.1-62.2,27.1
			c-23.4,0-42-8-55.7-23.9c-13.9-15.9-20.7-37.3-20.7-64.1c0-28.8,7.2-51.7,21.8-68.8c14.5-17.1,34-25.6,58.5-25.6
			C5039.9,2344.7,5058.4,2352.1,5073.6,2366.7z M5055.6,2480.7c7.1-14.5,10.6-30.5,10.6-48.2c0-16-2.6-29-7.6-39
			c-8-15.7-21.8-23.6-41.4-23.6c-17.4,0-30.1,6.7-38.1,20.1c-7.9,13.5-11.8,29.7-11.8,48.6c0,18.2,3.9,33.4,11.8,45.5
			c8,12.1,20.6,18.2,37.7,18.2C5035.7,2502.3,5048.6,2495.1,5055.6,2480.7z"/>
		<path class="st0" d="M5132.4,2285.9h28.7v117.6v117.5h-28.7v-117.5V2285.9z"/>
		<path class="st0" d="M5205.3,2285.9h28.8v117.6v117.5h-28.8v-117.5V2285.9z"/>
		<path class="st0" d="M5383.1,2354.4c11.4,5.7,20.1,13.1,26,22.2c5.7,8.6,9.4,18.7,11.5,30.2c1.7,7.9,2.5,20.5,2.5,37.8h-124.6
			c0.5,17.4,4.6,31.4,12.3,41.9c7.5,10.5,19.4,15.8,35.3,15.8c15,0,26.9-5,35.8-14.9c5-5.8,8.4-12.5,10.6-20.1h28.3
			c-0.8,6.3-3.3,13.4-7.4,21.1c-4.3,7.7-9,14.1-14.1,18.9c-8.7,8.5-19.4,14.3-32.2,17.3c-6.9,1.6-14.7,2.6-23.4,2.6
			c-21.2,0-39.1-7.8-53.8-23.3c-14.8-15.5-22.1-37.3-22.1-65.2c0-27.6,7.4-49.9,22.3-67c14.8-17.2,34.2-25.7,58.1-25.7
			C5360,2345.9,5371.8,2348.7,5383.1,2354.4z M5393.4,2421.7c-1.1-12.5-3.9-22.4-8-29.9c-7.9-13.9-20.9-20.8-39.3-20.8
			c-13.1,0-24.2,4.8-33,14.3c-8.8,9.5-13.5,21.7-14.1,36.4H5393.4z"/>
		<path class="st0" d="M5572.7,2358.8c12.1,9.3,19.4,25.5,21.8,48.4h-27.9c-1.7-10.5-5.6-19.3-11.8-26.3c-6-7-15.7-10.5-29.2-10.5
			c-18.4,0-31.5,8.9-39.4,26.9c-5.1,11.6-7.7,25.9-7.7,42.9c0,17.2,3.7,31.6,10.9,43.3c7.3,11.8,18.7,17.6,34.2,17.6
			c12,0,21.4-3.6,28.4-10.9c7-7.3,11.8-17.2,14.5-29.8h27.9c-3.2,22.7-11.1,39.3-24,49.8c-12.8,10.5-29.2,15.8-49.1,15.8
			c-22.4,0-40.3-8.2-53.6-24.5c-13.4-16.4-20-36.8-20-61.4c0-30.1,7.4-53.5,22-70.2c14.6-16.8,33.2-25.1,55.8-25.1
			C5544.8,2344.7,5560.6,2349.4,5572.7,2358.8z"/>
		<path class="st0" d="M5629.1,2301.9h29.1v47.8h27.4v23.5h-27.4V2485c0,6,2,10,6.1,12c2.2,1.2,5.9,1.8,11.2,1.8
			c1.4,0,2.9,0,4.5-0.1c1.5,0,3.4-0.2,5.6-0.5v22.9c-3.3,0.9-6.7,1.6-10.3,2.1c-3.7,0.4-7.5,0.6-11.6,0.6
			c-13.5,0-22.5-3.4-27.4-10.3c-4.8-6.9-7.2-15.8-7.2-26.8v-113.5h-23.3v-23.5h23.3V2301.9z"/>
		<path class="st0" d="M5714.4,2285.9h29.4v32.7h-29.4V2285.9z M5714.4,2350.5h29.4v170.6h-29.4V2350.5z"/>
		<path class="st0" d="M5911.4,2366.7c15.1,14.7,22.6,36.4,22.6,64.9c0,27.7-6.6,50.4-19.9,68.4c-13.3,18-34.1,27.1-62.2,27.1
			c-23.4,0-42-8-55.7-23.9c-13.8-15.9-20.7-37.3-20.7-64.1c0-28.8,7.2-51.7,21.7-68.8c14.6-17.1,34-25.6,58.5-25.6
			C5877.7,2344.7,5896.2,2352.1,5911.4,2366.7z M5893.5,2480.7c7-14.5,10.6-30.5,10.6-48.2c0-16-2.5-29-7.6-39
			c-7.9-15.7-21.8-23.6-41.4-23.6c-17.4,0-30.1,6.7-38,20.1c-7.9,13.5-11.8,29.7-11.8,48.6c0,18.2,3.9,33.4,11.8,45.5
			c8,12.1,20.5,18.2,37.8,18.2C5873.6,2502.3,5886.5,2495.1,5893.5,2480.7z"/>
		<path class="st0" d="M5969.5,2349.6h27.4v24.4c8.1-10,16.7-17.2,25.7-21.6c9.1-4.3,19.2-6.5,30.2-6.5c24.4,0,40.8,8.5,49.4,25.4
			c4.7,9.3,7,22.6,7,39.8v110h-29.2v-108c0-10.5-1.6-18.9-4.7-25.3c-5.1-10.6-14.4-16-27.8-16c-6.9,0-12.5,0.7-16.8,2
			c-8,2.4-14.9,7.1-20.9,14.2c-4.8,5.6-8,11.5-9.4,17.5c-1.4,6-2.1,14.6-2.1,25.8v89.8h-28.8L5969.5,2349.6L5969.5,2349.6z"/>
		<path class="st0" d="M6168.8,2467.3c0.9,9.6,3.3,17,7.3,22.1c7.5,9.3,20.3,13.9,38.7,13.9c10.8,0,20.4-2.3,28.7-6.9
			c8.2-4.6,12.4-11.8,12.4-21.5c0-7.3-3.3-13-9.9-16.8c-4.2-2.4-12.6-5.1-25-8.2l-23.3-5.7c-14.9-3.7-25.9-7.7-32.9-12.2
			c-12.5-7.8-18.8-18.6-18.8-32.3c0-16.2,5.9-29.3,17.7-39.4c11.9-10,27.8-15.1,47.7-15.1c26.2,0,45.1,7.6,56.5,22.7
			c7.4,9.6,10.9,19.9,10.6,31h-27.2c-0.6-6.4-2.9-12.3-7.1-17.7c-6.7-7.5-18.5-11.2-35.2-11.2c-11.2,0-19.5,2-25.3,6.2
			c-5.8,4.2-8.7,9.7-8.7,16.4c0,7.4,3.8,13.4,11.4,17.8c4.3,2.8,10.8,5.1,19.2,7.1l19.4,4.6c21.2,5,35.3,9.9,42.4,14.6
			c11.2,7.4,16.8,19,16.8,34.7c0,15.3-5.9,28.4-17.6,39.5c-11.8,11.1-29.6,16.6-53.5,16.6c-25.8,0-44.1-5.7-54.9-17.3
			c-10.7-11.6-16.5-25.9-17.3-43L6168.8,2467.3L6168.8,2467.3z"/>
		<path class="st0" d="M102.6,2285.5h93.9c32,0,56.6,11.4,74.3,34.4c15.6,20.7,23.5,47.2,23.5,79.5c0,25-4.6,47.5-13.9,67.7
			c-16.3,35.6-44.4,53.5-84.1,53.5h-93.7L102.6,2285.5L102.6,2285.5z M190.3,2493.3c10.4,0,19.1-1.1,26-3.4
			c12.1-4.1,22-12.1,29.7-24c6.2-9.5,10.6-21.7,13.3-36.5c1.6-8.8,2.3-17.1,2.3-24.6c0-29.1-5.6-51.7-16.9-67.9
			c-11.4-16.1-29.6-24.1-54.7-24.1h-55.3v180.5H190.3z"/>
		<path class="st0" d="M333.9,2285.5h29.2v32.6h-29.2V2285.5z M333.9,2350h29.2v170.6h-29.2V2350z"/>
		<path class="st0" d="M423.9,2466.8c0.9,9.6,3.3,16.9,7.3,22.1c7.4,9.3,20.2,14,38.5,14c10.8,0,20.5-2.4,28.8-6.9
			c8.2-4.7,12.4-11.8,12.4-21.6c0-7.4-3.4-13-9.9-16.8c-4.2-2.3-12.5-5-25.1-8.1l-23.2-5.7c-14.9-3.6-25.9-7.7-33-12.2
			c-12.6-7.9-18.8-18.6-18.8-32.3c0-16.2,5.9-29.3,17.7-39.4c11.8-10,27.8-15,47.7-15c26.2,0,45,7.6,56.6,22.8
			c7.1,9.6,10.7,19.9,10.5,31h-27.3c-0.5-6.4-2.8-12.3-7-17.7c-6.8-7.6-18.6-11.3-35.3-11.3c-11.1,0-19.5,2.1-25.2,6.2
			c-5.8,4.2-8.7,9.6-8.7,16.4c0,7.5,3.7,13.4,11.3,17.9c4.4,2.7,10.8,5,19.4,7.1l19.3,4.6c21.1,5,35.2,9.9,42.4,14.6
			c11.2,7.4,16.8,19,16.8,34.7c0,15.3-5.8,28.5-17.5,39.5c-11.7,11.1-29.5,16.7-53.6,16.7c-25.7,0-44.1-5.8-54.8-17.4
			c-10.7-11.6-16.5-25.9-17.3-42.9L423.9,2466.8L423.9,2466.8z"/>
		<path class="st0" d="M576.3,2301.4h29.3v47.8h27.3v23.5h-27.3v111.8c0,6,1.9,10,6.1,12c2.3,1.2,6,1.8,11.1,1.8
			c1.4,0,2.9-0.1,4.5-0.1c1.6,0,3.4-0.2,5.6-0.5v22.9c-3.3,0.9-6.7,1.7-10.4,2.1c-3.5,0.5-7.4,0.7-11.6,0.7
			c-13.4,0-22.5-3.5-27.3-10.4c-4.8-6.9-7.3-15.8-7.3-26.8v-113.4h-23.2v-23.5h23.2L576.3,2301.4L576.3,2301.4z"/>
		<path class="st0" d="M662.4,2349.2h27.5v29.6c2.2-5.8,7.7-12.8,16.5-21.1c8.7-8.2,18.8-12.4,30.3-12.4c0.5,0,1.3,0.1,2.7,0.1
			c1.3,0.1,3.4,0.3,6.5,0.6v30.4c-1.6-0.3-3.2-0.5-4.7-0.7c-1.4,0-3-0.1-4.7-0.1c-14.6,0-25.7,4.6-33.4,14
			c-7.8,9.4-11.7,20.1-11.7,32.2v98.6h-28.9L662.4,2349.2L662.4,2349.2z"/>
		<path class="st0" d="M770.8,2285.5h29.3v32.6h-29.3V2285.5z M770.8,2350h29.3v170.6h-29.3V2350z"/>
		<path class="st0" d="M841.3,2284.7h28v85.3c6.2-8.3,13.8-14.5,22.6-18.8c8.8-4.3,18.3-6.5,28.6-6.5c21.4,0,38.8,7.3,52.1,22
			c13.3,14.7,20,36.3,20,64.9c0,27.1-6.5,49.6-19.7,67.5c-13.1,18-31.5,26.9-54.7,26.9c-13.1,0-24.1-3.2-33.1-9.4
			c-5.5-3.8-11.1-9.7-17.3-17.9v21.9h-26.4L841.3,2284.7L841.3,2284.7z M951.3,2482c7.9-12.4,11.7-28.7,11.7-49
			c0-18-3.9-33-11.7-44.8c-7.7-11.8-19.1-17.7-34.3-17.7c-13.1,0-24.7,4.9-34.6,14.5c-9.9,9.7-14.8,25.8-14.8,48
			c0,16.1,2,29.2,6.1,39.2c7.6,18.9,21.8,28.3,42.5,28.3C931.9,2500.6,943.5,2494.4,951.3,2482z"/>
		<path class="st0" d="M1054.6,2349.2V2463c0,8.8,1.4,15.9,4.1,21.4c5,10.3,14.3,15.4,27.9,15.4c19.5,0,32.8-9,39.9-26.9
			c3.8-9.6,5.8-22.8,5.8-39.5v-84.2h28.8v171.4h-27.2l0.4-25.3c-3.6,6.6-8.2,12-13.6,16.5c-10.9,9-23.9,13.4-39.3,13.4
			c-24,0-40.3-8.2-49.1-24.5c-4.6-8.7-7-20.3-7-35v-116.5L1054.6,2349.2L1054.6,2349.2z"/>
		<path class="st0" d="M1213.9,2301.4h29.1v47.8h27.4v23.5H1243v111.8c0,6,2,10,6.2,12c2.2,1.2,6,1.8,11.2,1.8
			c1.4,0,2.9-0.1,4.5-0.1c1.5,0,3.4-0.2,5.5-0.5v22.9c-3.2,0.9-6.7,1.7-10.3,2.1c-3.6,0.5-7.4,0.7-11.6,0.7
			c-13.5,0-22.6-3.5-27.4-10.4c-4.7-6.9-7.2-15.8-7.2-26.8v-113.4h-23.2v-23.5h23.2L1213.9,2301.4L1213.9,2301.4z"/>
		<path class="st0" d="M1405,2353.9c11.4,5.7,20.1,13.1,26,22.2c5.7,8.6,9.6,18.8,11.5,30.3c1.6,7.9,2.5,20.5,2.5,37.8h-124.6
			c0.5,17.4,4.6,31.4,12.2,41.9c7.6,10.5,19.4,15.8,35.4,15.8c14.9,0,26.8-5,35.7-15c5-5.8,8.5-12.5,10.5-20.1h28.4
			c-0.8,6.2-3.3,13.3-7.5,21.1c-4.2,7.7-8.9,14-14.2,18.9c-8.6,8.5-19.4,14.3-32.2,17.2c-6.9,1.7-14.8,2.6-23.4,2.6
			c-21.2,0-39.2-7.8-53.9-23.3c-14.7-15.5-22.1-37.2-22.1-65.2c0-27.5,7.4-49.9,22.3-67c14.8-17.2,34.2-25.7,58.2-25.7
			C1382,2345.4,1393.7,2348.2,1405,2353.9z M1415.4,2421.2c-1.2-12.5-3.9-22.5-8.2-30c-7.8-13.9-20.8-20.8-39.2-20.8
			c-13.1,0-24,4.7-33,14.3c-8.8,9.6-13.5,21.6-14.1,36.4H1415.4z"/>
		<path class="st0" d="M1575.6,2354.5c5.1,3.1,10.9,8.7,17.4,16.8v-86.5h27.8v235.9h-25.9v-23.8c-6.8,10.5-14.7,18.1-23.8,22.8
			c-9.1,4.7-19.5,7.1-31.4,7.1c-18.9,0-35.5-8-49.4-24.1c-13.9-16-20.9-37.4-20.9-64c0-25,6.4-46.6,19.1-64.9
			c12.7-18.3,30.8-27.5,54.4-27.5C1555.9,2346.1,1566.8,2348.9,1575.6,2354.5z M1511.3,2482.9c7.7,12.4,20.1,18.6,37.3,18.6
			c13.3,0,24.1-5.7,32.8-17.2c8.5-11.5,12.8-27.9,12.8-49.3c0-21.7-4.4-37.7-13.2-48.1c-8.8-10.4-19.6-15.6-32.7-15.6
			c-14.4,0-26.1,5.6-35.1,16.6c-9,11.1-13.5,27.4-13.5,49C1499.7,2455.2,1503.6,2470.6,1511.3,2482.9z"/>
		<path class="st0" d="M1779.4,2444.8c0.8,13.3,3.8,24.1,9.1,32.4c10.2,15.6,28.1,23.4,53.8,23.4c11.5,0,22-1.7,31.4-5.1
			c18.3-6.6,27.5-18.4,27.5-35.5c0-12.8-3.9-22-11.7-27.4c-7.9-5.3-20.2-9.9-36.9-13.9l-30.8-7.2c-20.1-4.7-34.4-9.9-42.8-15.5
			c-14.5-9.8-21.7-24.5-21.7-44c0-21.1,7.1-38.5,21.3-52c14.2-13.5,34.4-20.3,60.4-20.3c24,0,44.4,5.9,61.1,17.8
			c16.7,11.9,25.2,30.9,25.2,57.1h-29.9c-1.5-12.6-4.8-22.2-9.8-29c-9.3-12.2-25-18.4-47.4-18.4c-17.9,0-30.9,4-38.8,11.8
			c-7.9,7.9-11.8,17-11.8,27.5c0,11.5,4.7,19.9,13.9,25.3c6.1,3.4,20,7.7,41.5,12.8l31.9,7.5c15.5,3.6,27.4,8.6,35.7,14.9
			c14.5,11,21.7,27,21.7,47.9c0,26-9.2,44.6-27.7,55.8c-18.4,11.2-39.9,16.8-64.4,16.8c-28.5,0-50.9-7.4-67-22.4
			c-16.1-14.8-24-35-23.7-60.3H1779.4z"/>
		<path class="st0" d="M2080.5,2349.2h31.8c-4,11-13,36-27,75.3c-10.5,29.4-19.3,53.4-26.3,72c-16.6,43.7-28.3,70.3-35.2,79.9
			c-6.8,9.6-18.4,14.4-35.1,14.4c-4.2,0-7.2-0.1-9.4-0.4c-2.2-0.4-4.8-0.9-8.1-1.8v-26.3c5.1,1.5,8.6,2.3,10.9,2.6
			c2.2,0.4,4.2,0.5,5.9,0.5c5.4,0,9.2-0.9,11.7-2.6c2.5-1.8,4.5-3.9,6.2-6.4c0.6-0.9,2.5-5.2,5.8-13.1c3.3-7.9,5.7-13.7,7.2-17.6
			l-63.4-176.4h32.7l45.9,139.6L2080.5,2349.2z"/>
		<path class="st0" d="M2154.4,2466.8c0.9,9.6,3.3,16.9,7.2,22.1c7.4,9.3,20.4,14,38.5,14c10.9,0,20.6-2.4,28.8-6.9
			c8.2-4.7,12.4-11.8,12.4-21.6c0-7.4-3.2-13-9.9-16.8c-4.2-2.3-12.5-5-25-8.1l-23.3-5.7c-14.8-3.6-25.7-7.7-32.8-12.2
			c-12.6-7.9-18.9-18.6-18.9-32.3c0-16.2,5.9-29.3,17.7-39.4c11.8-10,27.8-15,47.8-15c26.2,0,45,7.6,56.6,22.8
			c7.3,9.6,10.7,19.9,10.6,31h-27.2c-0.6-6.4-2.9-12.3-7.1-17.7c-6.7-7.6-18.4-11.3-35.2-11.3c-11.1,0-19.6,2.1-25.3,6.2
			c-5.7,4.2-8.6,9.6-8.6,16.4c0,7.5,3.7,13.4,11.3,17.9c4.3,2.7,10.8,5,19.3,7.1l19.4,4.6c21,5,35.1,9.9,42.3,14.6
			c11.2,7.4,16.8,19,16.8,34.7c0,15.3-5.9,28.5-17.6,39.5c-11.7,11.1-29.5,16.7-53.4,16.7c-25.9,0-44.2-5.8-54.9-17.4
			c-10.7-11.6-16.5-25.9-17.2-42.9L2154.4,2466.8L2154.4,2466.8z"/>
		<path class="st0" d="M2306.8,2301.4h29.2v47.8h27.3v23.5H2336v111.8c0,6,2,10,6.1,12c2.2,1.2,5.9,1.8,11.1,1.8
			c1.4,0,2.9-0.1,4.5-0.1c1.6,0,3.5-0.2,5.6-0.5v22.9c-3.3,0.9-6.7,1.7-10.3,2.1c-3.5,0.5-7.5,0.7-11.7,0.7
			c-13.4,0-22.5-3.5-27.4-10.4c-4.7-6.9-7.1-15.8-7.1-26.8v-113.4h-23.2v-23.5h23.2L2306.8,2301.4L2306.8,2301.4z"/>
		<path class="st0" d="M2498,2353.9c11.3,5.7,20,13.1,25.9,22.2c5.7,8.6,9.5,18.8,11.4,30.3c1.7,7.9,2.6,20.5,2.6,37.8h-124.8
			c0.5,17.4,4.7,31.4,12.3,41.9c7.6,10.5,19.4,15.8,35.4,15.8c14.9,0,26.8-5,35.7-15c4.9-5.8,8.5-12.5,10.6-20.1h28.3
			c-0.8,6.2-3.2,13.3-7.4,21.1c-4.3,7.7-8.9,14-14.1,18.9c-8.7,8.5-19.5,14.3-32.3,17.2c-6.9,1.7-14.6,2.6-23.3,2.6
			c-21.2,0-39.2-7.8-53.9-23.3c-14.7-15.5-22.1-37.2-22.1-65.2c0-27.5,7.3-49.9,22.3-67c14.8-17.2,34.2-25.7,58.1-25.7
			C2474.9,2345.4,2486.6,2348.2,2498,2353.9z M2508.3,2421.2c-1.2-12.5-3.8-22.5-8.1-30c-7.9-13.9-20.9-20.8-39.2-20.8
			c-13.1,0-24.2,4.7-33.1,14.3c-8.8,9.6-13.5,21.6-14.1,36.4H2508.3z"/>
		<path class="st0" d="M2574.4,2349.2h28.5v24.3c6.8-8.4,13-14.6,18.6-18.4c9.4-6.5,20.3-9.7,32.3-9.7c13.6,0,24.6,3.3,33,10
			c4.7,3.9,9,9.5,12.8,17c6.3-9.2,14-15.9,22.6-20.5c8.6-4.4,18.3-6.6,29.2-6.6c23,0,38.7,8.3,46.9,25c4.5,8.9,6.8,21,6.8,36.1
			v114.1h-29.9v-119.1c0-11.4-2.9-19.2-8.6-23.5c-5.7-4.3-12.7-6.4-20.8-6.4c-11.4,0-21.1,3.8-29.2,11.3c-8.2,7.6-12.3,20.2-12.3,38
			v99.7h-29.2v-111.9c0-11.6-1.5-20.1-4.2-25.5c-4.4-8-12.5-12-24.5-12c-10.9,0-20.7,4.2-29.6,12.7c-9,8.4-13.4,23.7-13.4,45.8v90.9
			h-28.8L2574.4,2349.2L2574.4,2349.2z"/>
		<path class="st0" d="M3062.5,2366.3c15.2,14.7,22.8,36.4,22.8,64.9c0,27.6-6.7,50.4-20,68.5c-13.4,18-34,27-62.2,27
			c-23.4,0-42-8-55.8-23.9c-13.8-15.9-20.7-37.3-20.7-64.2c0-28.8,7.3-51.7,21.8-68.7c14.5-17.1,34-25.6,58.5-25.6
			C3028.8,2344.2,3047.4,2351.6,3062.5,2366.3z M3044.7,2480.2c7-14.4,10.4-30.5,10.4-48.2c0-16-2.5-29-7.5-38.9
			c-8-15.9-21.9-23.7-41.4-23.7c-17.4,0-30.1,6.7-38,20.2c-7.9,13.5-11.8,29.6-11.8,48.6c0,18.2,4,33.5,11.8,45.5
			c7.9,12.2,20.4,18.2,37.7,18.2C3024.7,2501.8,3037.7,2494.6,3044.7,2480.2z"/>
		<path class="st0" d="M3134.1,2296.9c6.7-9.8,19.7-14.7,38.9-14.7c1.8,0,3.6,0.1,5.5,0.2c2,0.1,4.2,0.3,6.6,0.5v26.2
			c-3.1-0.2-5.2-0.4-6.6-0.4c-1.3,0-2.6-0.1-3.7-0.1c-8.9,0-14.2,2.3-15.9,6.8c-1.8,4.5-2.6,16.1-2.6,34.6h28.8v22.7h-28.8v147.9
			h-28.5v-147.9H3104V2350h23.9v-26.9C3128.3,2311.1,3130.4,2302.4,3134.1,2296.9z"/>
		<path class="st0" d="M3334.9,2445.2c0.8,13.4,3.7,24.2,9.1,32.5c10.2,15.6,28.1,23.3,53.8,23.3c11.5,0,22-1.7,31.5-5.1
			c18.3-6.6,27.4-18.5,27.4-35.5c0-12.8-3.9-22-11.5-27.4c-7.8-5.3-20.1-10-36.9-13.9l-30.8-7.2c-20.2-4.7-34.5-9.8-42.9-15.6
			c-14.5-9.8-21.7-24.5-21.7-44c0-21.1,7.1-38.4,21.4-51.9c14.1-13.6,34.3-20.4,60.4-20.4c23.9,0,44.4,6,61.1,17.9
			c16.7,11.9,25.1,30.9,25.1,57H3451c-1.6-12.6-4.8-22.2-9.8-29c-9.4-12.2-25.2-18.4-47.5-18.4c-18,0-30.9,4-38.8,11.9
			c-7.9,7.8-11.7,17-11.7,27.4c0,11.6,4.6,20,13.9,25.3c6.1,3.4,19.8,7.7,41.4,12.9l31.9,7.5c15.4,3.7,27.3,8.6,35.7,14.9
			c14.4,11,21.7,26.9,21.7,47.8c0,26-9.2,44.7-27.7,55.8c-18.5,11.2-40,16.9-64.4,16.9c-28.5,0-50.9-7.5-66.9-22.4
			c-16.2-14.8-24.1-34.9-23.7-60.3L3334.9,2445.2L3334.9,2445.2z"/>
		<path class="st0" d="M3642.1,2358.8c12.1,9.3,19.4,25.5,21.8,48.4h-28c-1.7-10.5-5.6-19.3-11.7-26.3c-6-7-15.8-10.5-29.3-10.5
			c-18.4,0-31.5,8.9-39.4,26.9c-5.1,11.6-7.6,25.9-7.6,42.9c0,17.2,3.7,31.6,10.9,43.3c7.2,11.8,18.6,17.6,34.3,17.6
			c11.9,0,21.4-3.6,28.4-10.9c6.9-7.3,11.8-17.2,14.4-29.8h28c-3.2,22.7-11.2,39.3-24,49.8c-12.8,10.5-29.2,15.8-49.1,15.8
			c-22.4,0-40.3-8.2-53.7-24.5c-13.3-16.4-19.9-36.8-19.9-61.4c0-30.1,7.3-53.5,21.9-70.2c14.7-16.8,33.2-25.1,55.8-25.1
			C3614.2,2344.7,3630,2349.4,3642.1,2358.8z"/>
		<path class="st0" d="M3692.7,2285.9h29.3v32.7h-29.3V2285.9z M3692.7,2350.5h29.3v170.6h-29.3V2350.5z"/>
		<path class="st0" d="M3871.4,2354.4c11.4,5.7,20,13.1,26,22.2c5.6,8.6,9.5,18.7,11.5,30.2c1.6,7.9,2.5,20.5,2.5,37.8h-124.6
			c0.6,17.4,4.6,31.4,12.2,41.9c7.6,10.5,19.4,15.8,35.3,15.8c15.1,0,26.8-5,35.8-14.9c5-5.8,8.5-12.5,10.5-20.1h28.3
			c-0.8,6.3-3.3,13.4-7.5,21.1c-4.1,7.7-8.8,14.1-14,18.9c-8.7,8.5-19.5,14.3-32.3,17.3c-6.9,1.6-14.7,2.6-23.4,2.6
			c-21.2,0-39.2-7.8-53.9-23.3c-14.7-15.5-22.1-37.3-22.1-65.2c0-27.6,7.4-49.9,22.2-67c14.8-17.2,34.2-25.7,58.2-25.7
			C3848.3,2345.9,3860.1,2348.7,3871.4,2354.4z M3881.7,2421.7c-1.2-12.5-3.9-22.4-8.2-29.9c-7.7-13.9-20.8-20.8-39.2-20.8
			c-13.1,0-24.1,4.8-33,14.3c-8.8,9.5-13.6,21.7-14.1,36.4H3881.7z"/>
		<path class="st0" d="M3947.8,2349.6h27.4v24.4c8.1-10,16.7-17.2,25.8-21.6c9.1-4.3,19.2-6.5,30.1-6.5c24.4,0,40.8,8.5,49.3,25.4
			c4.7,9.3,7,22.6,7,39.8v110h-29.3v-108c0-10.5-1.5-18.9-4.7-25.3c-5.2-10.6-14.3-16-27.8-16c-6.8,0-12.5,0.7-16.9,2
			c-7.9,2.4-14.8,7.1-20.8,14.2c-4.8,5.6-8,11.5-9.4,17.5c-1.4,6-2.2,14.6-2.2,25.8v89.8h-28.8L3947.8,2349.6L3947.8,2349.6z"/>
		<path class="st0" d="M4135.9,2301.9h29.1v47.8h27.4v23.5h-27.4V2485c0,6,2.1,10,6.1,12c2.2,1.2,6,1.8,11.2,1.8
			c1.4,0,2.9,0,4.5-0.1c1.6,0,3.5-0.2,5.6-0.5v22.9c-3.3,0.9-6.7,1.6-10.3,2.1c-3.6,0.4-7.5,0.6-11.7,0.6
			c-13.3,0-22.5-3.4-27.3-10.3c-4.8-6.9-7.1-15.8-7.1-26.8v-113.5h-23.3v-23.5h23.3V2301.9z"/>
		<path class="st0" d="M4221.1,2285.9h29.3v32.7h-29.3V2285.9z M4221.1,2350.5h29.3v170.6h-29.3V2350.5z"/>
		<path class="st0" d="M4307.3,2297.3c6.7-9.8,19.7-14.7,38.9-14.7c1.8,0,3.7,0.1,5.5,0.2c2,0.1,4.2,0.3,6.6,0.5v26.2
			c-2.9-0.2-5.2-0.4-6.6-0.4c-1.2-0.1-2.6-0.1-3.7-0.1c-8.9,0-14.2,2.3-16,6.8c-1.7,4.5-2.5,16.1-2.5,34.7h28.8v22.7h-28.8v147.9
			h-28.5v-147.9h-23.9v-22.7h23.9v-26.9C4301.5,2311.7,4303.6,2302.9,4307.3,2297.3z"/>
		<path class="st0" d="M4384.9,2285.9h29.3v32.7h-29.3V2285.9z M4384.9,2350.5h29.3v170.6h-29.3V2350.5z"/>
		<path class="st0" d="M4571,2358.8c12.1,9.3,19.3,25.5,21.8,48.4h-28c-1.7-10.5-5.6-19.3-11.7-26.3c-6-7-15.8-10.5-29.3-10.5
			c-18.4,0-31.4,8.9-39.3,26.9c-5.2,11.6-7.7,25.9-7.7,42.9c0,17.2,3.7,31.6,10.9,43.3c7.2,11.8,18.6,17.6,34.2,17.6
			c11.9,0,21.5-3.6,28.4-10.9c7.1-7.3,11.8-17.2,14.5-29.8h28c-3.2,22.7-11.2,39.3-24,49.8c-12.8,10.5-29.3,15.8-49.2,15.8
			c-22.3,0-40.2-8.2-53.5-24.5c-13.3-16.4-20-36.8-20-61.4c0-30.1,7.3-53.5,21.9-70.2c14.7-16.8,33.3-25.1,55.8-25.1
			C4543.1,2344.7,4558.9,2349.4,4571,2358.8z"/>
		<path class="st0" d="M4882.8,2303.1c16.3,15.7,25.2,33.5,27,53.5h-31.1c-3.4-15.2-10.3-27.2-20.6-36
			c-10.3-8.9-24.8-13.3-43.5-13.3c-22.7,0-41.1,8.2-55,24.5c-14.1,16.3-21,41.2-21,74.8c0,27.6,6.4,49.9,18.9,67
			c12.7,17.1,31.5,25.7,56.6,25.7c23.1,0,40.6-9,52.6-27c6.4-9.5,11.2-21.9,14.4-37.4h31c-2.6,24.7-11.8,45.5-27.1,62.2
			c-18.5,20.2-43.3,30.2-74.7,30.2c-27.1,0-49.7-8.2-68.1-24.8c-24.1-21.8-36.2-55.7-36.2-101.3c0-34.6,9.1-63.1,27.3-85.4
			c19.5-24.1,46.6-36.2,81-36.2C4843.7,2279.6,4866.6,2287.4,4882.8,2303.1z"/>
		<path class="st0" d="M5073.6,2366.7c15,14.7,22.6,36.4,22.6,64.9c0,27.7-6.7,50.4-20,68.4c-13.4,18-34.1,27.1-62.2,27.1
			c-23.4,0-42-8-55.7-23.9c-13.9-15.9-20.7-37.3-20.7-64.1c0-28.8,7.2-51.7,21.8-68.8c14.5-17.1,34-25.6,58.5-25.6
			C5039.9,2344.7,5058.4,2352.1,5073.6,2366.7z M5055.6,2480.7c7.1-14.5,10.6-30.5,10.6-48.2c0-16-2.6-29-7.6-39
			c-8-15.7-21.8-23.6-41.4-23.6c-17.4,0-30.1,6.7-38.1,20.1c-7.9,13.5-11.8,29.7-11.8,48.6c0,18.2,3.9,33.4,11.8,45.5
			c8,12.1,20.6,18.2,37.7,18.2C5035.7,2502.3,5048.6,2495.1,5055.6,2480.7z"/>
		<path class="st0" d="M5132.4,2285.9h28.7v117.6v117.5h-28.7v-117.5V2285.9z"/>
		<path class="st0" d="M5205.3,2285.9h28.8v117.6v117.5h-28.8v-117.5V2285.9z"/>
		<path class="st0" d="M5383.1,2354.4c11.4,5.7,20.1,13.1,26,22.2c5.7,8.6,9.4,18.7,11.5,30.2c1.7,7.9,2.5,20.5,2.5,37.8h-124.6
			c0.5,17.4,4.6,31.4,12.3,41.9c7.5,10.5,19.4,15.8,35.3,15.8c15,0,26.9-5,35.8-14.9c5-5.8,8.4-12.5,10.6-20.1h28.3
			c-0.8,6.3-3.3,13.4-7.4,21.1c-4.3,7.7-9,14.1-14.1,18.9c-8.7,8.5-19.4,14.3-32.2,17.3c-6.9,1.6-14.7,2.6-23.4,2.6
			c-21.2,0-39.1-7.8-53.8-23.3c-14.8-15.5-22.1-37.3-22.1-65.2c0-27.6,7.4-49.9,22.3-67c14.8-17.2,34.2-25.7,58.1-25.7
			C5360,2345.9,5371.8,2348.7,5383.1,2354.4z M5393.4,2421.7c-1.1-12.5-3.9-22.4-8-29.9c-7.9-13.9-20.9-20.8-39.3-20.8
			c-13.1,0-24.2,4.8-33,14.3c-8.8,9.5-13.5,21.7-14.1,36.4H5393.4z"/>
		<path class="st0" d="M5572.7,2358.8c12.1,9.3,19.4,25.5,21.8,48.4h-27.9c-1.7-10.5-5.6-19.3-11.8-26.3c-6-7-15.7-10.5-29.2-10.5
			c-18.4,0-31.5,8.9-39.4,26.9c-5.1,11.6-7.7,25.9-7.7,42.9c0,17.2,3.7,31.6,10.9,43.3c7.3,11.8,18.7,17.6,34.2,17.6
			c12,0,21.4-3.6,28.4-10.9c7-7.3,11.8-17.2,14.5-29.8h27.9c-3.2,22.7-11.1,39.3-24,49.8c-12.8,10.5-29.2,15.8-49.1,15.8
			c-22.4,0-40.3-8.2-53.6-24.5c-13.4-16.4-20-36.8-20-61.4c0-30.1,7.4-53.5,22-70.2c14.6-16.8,33.2-25.1,55.8-25.1
			C5544.8,2344.7,5560.6,2349.4,5572.7,2358.8z"/>
		<path class="st0" d="M5629.1,2301.9h29.1v47.8h27.4v23.5h-27.4V2485c0,6,2,10,6.1,12c2.2,1.2,5.9,1.8,11.2,1.8
			c1.4,0,2.9,0,4.5-0.1c1.5,0,3.4-0.2,5.6-0.5v22.9c-3.3,0.9-6.7,1.6-10.3,2.1c-3.7,0.4-7.5,0.6-11.6,0.6
			c-13.5,0-22.5-3.4-27.4-10.3c-4.8-6.9-7.2-15.8-7.2-26.8v-113.5h-23.3v-23.5h23.3V2301.9z"/>
		<path class="st0" d="M5714.4,2285.9h29.4v32.7h-29.4V2285.9z M5714.4,2350.5h29.4v170.6h-29.4V2350.5z"/>
		<path class="st0" d="M5911.4,2366.7c15.1,14.7,22.6,36.4,22.6,64.9c0,27.7-6.6,50.4-19.9,68.4c-13.3,18-34.1,27.1-62.2,27.1
			c-23.4,0-42-8-55.7-23.9c-13.8-15.9-20.7-37.3-20.7-64.1c0-28.8,7.2-51.7,21.7-68.8c14.6-17.1,34-25.6,58.5-25.6
			C5877.7,2344.7,5896.2,2352.1,5911.4,2366.7z M5893.5,2480.7c7-14.5,10.6-30.5,10.6-48.2c0-16-2.5-29-7.6-39
			c-7.9-15.7-21.8-23.6-41.4-23.6c-17.4,0-30.1,6.7-38,20.1c-7.9,13.5-11.8,29.7-11.8,48.6c0,18.2,3.9,33.4,11.8,45.5
			c8,12.1,20.5,18.2,37.8,18.2C5873.6,2502.3,5886.5,2495.1,5893.5,2480.7z"/>
		<path class="st0" d="M5969.5,2349.6h27.4v24.4c8.1-10,16.7-17.2,25.7-21.6c9.1-4.3,19.2-6.5,30.2-6.5c24.4,0,40.8,8.5,49.4,25.4
			c4.7,9.3,7,22.6,7,39.8v110h-29.2v-108c0-10.5-1.6-18.9-4.7-25.3c-5.1-10.6-14.4-16-27.8-16c-6.9,0-12.5,0.7-16.8,2
			c-8,2.4-14.9,7.1-20.9,14.2c-4.8,5.6-8,11.5-9.4,17.5c-1.4,6-2.1,14.6-2.1,25.8v89.8h-28.8L5969.5,2349.6L5969.5,2349.6z"/>
		<path class="st0" d="M6168.8,2467.3c0.9,9.6,3.3,17,7.3,22.1c7.5,9.3,20.3,13.9,38.7,13.9c10.8,0,20.4-2.3,28.7-6.9
			c8.2-4.6,12.4-11.8,12.4-21.5c0-7.3-3.3-13-9.9-16.8c-4.2-2.4-12.6-5.1-25-8.2l-23.3-5.7c-14.9-3.7-25.9-7.7-32.9-12.2
			c-12.5-7.8-18.8-18.6-18.8-32.3c0-16.2,5.9-29.3,17.7-39.4c11.9-10,27.8-15.1,47.7-15.1c26.2,0,45.1,7.6,56.5,22.7
			c7.4,9.6,10.9,19.9,10.6,31h-27.2c-0.6-6.4-2.9-12.3-7.1-17.7c-6.7-7.5-18.5-11.2-35.2-11.2c-11.2,0-19.5,2-25.3,6.2
			c-5.8,4.2-8.7,9.7-8.7,16.4c0,7.4,3.8,13.4,11.4,17.8c4.3,2.8,10.8,5.1,19.2,7.1l19.4,4.6c21.2,5,35.3,9.9,42.4,14.6
			c11.2,7.4,16.8,19,16.8,34.7c0,15.3-5.9,28.4-17.6,39.5c-11.8,11.1-29.6,16.6-53.5,16.6c-25.8,0-44.1-5.7-54.9-17.3
			c-10.7-11.6-16.5-25.9-17.3-43L6168.8,2467.3L6168.8,2467.3z"/>
	</g>
	<g>
		<path class="st0" d="M651,1746.9H102.6V119.5H651c243.2,0,449.4,74,618.7,221.9c169.2,148,253.8,345.3,253.8,591.9
			c0,244.8-84.6,441.8-253.8,590.6C1100.3,1672.6,894.2,1746.9,651,1746.9z M605.1,458.8H482.7v949h122.4
			c149.6,0,274.2-40.9,373.8-122.5c99.3-81.6,149.1-198.9,149.1-352c0-149.7-50.2-266.1-150.5-349.5
			C877.1,500.4,753,458.8,605.1,458.8z"/>
		<path class="st0" d="M3417.6,1249.6c0,275.9-223.8,497.3-497.4,497.3h-452c-198.9,0-361.7-162.7-361.7-361.7h813.7
			c74.7,0,135.7-61,135.7-135.7c0-74.5-61-135.6-135.7-135.6h-316.4c-275.8,0-497.3-221.5-497.3-497.3
			c0-273.4,221.5-497.2,497.3-497.2h780.9c0,198.9-265.6,361.6-464.5,361.6h-316.4c-74.6,0-135.6,61-135.6,135.6
			c0,74.6,61,135.7,135.6,135.7h316.4C3193.8,752.4,3417.6,976.1,3417.6,1249.6z"/>
		<path class="st0" d="M4194.4,1249.6c0,275.9-223.8,497.3-497.3,497.3h-452c-198.9,0-361.7-162.7-361.7-361.7h813.7
			c74.6,0,135.7-61,135.7-135.7c0-74.5-61.1-135.6-135.7-135.6h-316.5c-275.8,0-497.2-221.5-497.2-497.3
			c0-273.4,221.4-497.2,497.2-497.2h678.2c0,198.9-162.7,361.6-361.7,361.6h-316.5c-74.5,0-135.6,61-135.6,135.6
			c0,74.6,61,135.7,135.6,135.7h316.5C3970.6,752.4,4194.4,976.1,4194.4,1249.6z"/>
		<path class="st0" d="M6300,728.1c-113.4-453.3-572.6-729-1026-615.7c-55.2,13.8-107.8,32.9-157.5,56.3
			c-140.6,66.5-256.8,169.1-340.1,293.5C4648,653.9,4597.9,897,4658.3,1138.4c25.1,99.9,66.8,191.1,121.6,271.4
			c85.4,125.3,202.5,224.1,337,288c170.8,81.1,369.7,105.7,567.5,56.3C6137.6,1640.8,6413.3,1181.5,6300,728.1z M5474.3,1410.9
			c-7.2,0-14.3-0.2-21.4-0.6c-136.7-6.1-258.3-69.9-341-167.6c-70-82.7-112.4-189.7-112.4-306.6c0-116.9,42.4-223.8,112.4-306.6
			c83.6-98.8,206.8-162.8,345.2-167.8c5.7-0.2,11.4-0.4,17.2-0.4c262.3,0,474.8,212.5,474.8,474.8
			C5949.1,1198.4,5736.5,1410.9,5474.3,1410.9z"/>
		<path class="st0" d="M5111.9,1242.7c-81,95.6-199,158.7-332,167.1c-10.1,0.6-20.2,1.1-30.3,1.1c-262.3,0-474.8-212.6-474.8-474.8
			c0-262.2,212.6-474.7,474.8-474.7c9,0,18,0.3,26.9,0.8c134.4,7.5,253.8,70.9,335.5,167.4c83.6-98.8,206.8-162.8,345.2-167.8
			c-85.7-127.8-204.1-228.5-340.5-293.2C4945.8,87.6,4747,63,4549.1,112.4c-453.3,113.3-729,572.7-615.7,1026
			c113.3,453.4,572.6,728.9,1026,615.7c55.3-13.8,107.7-32.8,157.4-56.3c138.3-65.4,253-165.8,336.1-287.4
			C5316.2,1404.3,5194.6,1340.5,5111.9,1242.7z"/>
		<path class="st0" d="M1649.4,1353.3V296c198.8,0,361.5,162.7,361.5,361.6v1092C1812.2,1749.7,1649.4,1552.2,1649.4,1353.3z"/>
		<path class="st0" d="M2008.1,296c0,99.1-80.3,179.4-179.4,179.4c-99.1,0-179.3-80.3-179.3-179.4c0-99.1,80.2-179.3,179.3-179.3
			C1927.8,116.7,2008.1,197,2008.1,296z"/>
	</g>
	<path class="st0" d="M6284.4,2084.7v28.8H3193.2H102.6v-28.8h3090.6H6284.4z"/>
	<path class="st0" d="M6284.4,2722.2v28.8H3193.2H102.6v-28.8h3090.6H6284.4z"/>
</g>
</svg>
